<?xml version="1.0" encoding="UTF-8"?>
<!DOCTYPE svg PUBLIC "-//W3C//DTD SVG 1.1//EN" "http://www.w3.org/Graphics/SVG/1.1/DTD/svg11.dtd">
<!-- Creator: CorelDRAW 2019 (64 Bit Versão de avaliação) -->
<svg xmlns="http://www.w3.org/2000/svg" xml:space="preserve" width="772px" height="466px" version="1.1" style="shape-rendering:geometricPrecision; text-rendering:geometricPrecision; image-rendering:optimizeQuality; fill-rule:evenodd; clip-rule:evenodd"
viewBox="0 0 772 466.03"
 xmlns:xlink="http://www.w3.org/1999/xlink">
 <defs>
  <style type="text/css">
   <![CDATA[
    .fil2 {fill:#ED3237}
    .fil1 {fill:#2399A7}
    .fil3 {fill:#373435;fill-rule:nonzero}
    .fil0 {fill:#2399A7;fill-rule:nonzero}
   ]]>
  </style>
 </defs>
 <g id="Camada_x0020_1">
  <metadata id="CorelCorpID_0Corel-Layer"/>
  <path class="fil0" d="M244.59 213.95c2.5,3.16 5.89,6.25 10.16,9.27 4.28,3.03 9.15,5.69 14.6,7.99 5.46,2.31 11.32,4.15 17.56,5.53 6.25,1.38 12.53,2.07 18.85,2.07 4.6,0 8.41,-0.72 11.44,-2.17 3.02,-1.45 4.54,-3.88 4.54,-7.3l0 -0.99c0,-2.5 -1.02,-4.63 -3.06,-6.41 -2.04,-1.77 -4.84,-3.39 -8.39,-4.83 -3.55,-1.45 -7.66,-2.83 -12.33,-4.15 -4.67,-1.31 -9.63,-2.76 -14.89,-4.34 -5.27,-1.57 -10.16,-3.45 -14.7,-5.62 -4.54,-2.17 -8.49,-4.83 -11.84,-7.99 -3.35,-3.16 -6.02,-6.94 -7.99,-11.35 -1.97,-4.4 -2.96,-9.63 -2.96,-15.68l0 -1.97c0,-8.68 1.74,-15.66 5.23,-20.92 3.48,-5.26 7.96,-9.27 13.41,-12.03 5.46,-2.77 11.45,-4.61 17.96,-5.53 6.51,-0.92 12.86,-1.38 19.04,-1.38 3.15,0 6.38,0.17 9.67,0.5 3.28,0.32 6.41,0.65 9.37,0.98 2.96,0.33 5.69,0.66 8.19,0.99 2.49,0.33 4.6,0.49 6.31,0.49 1.97,0 3.91,-0.06 5.82,-0.2 1.91,-0.13 3.58,-0.65 5.03,-1.57l0.99 0.19c0.65,7.76 1.31,15.46 1.97,23.09 0.66,7.63 1.32,15.32 1.97,23.08l-0.79 0.4c-2.23,-2.77 -5.26,-5.27 -9.07,-7.5 -3.82,-2.24 -7.96,-4.14 -12.43,-5.72 -4.47,-1.58 -9.11,-2.8 -13.91,-3.65 -4.8,-0.86 -9.24,-1.29 -13.32,-1.29 -5.39,0 -9.86,0.66 -13.42,1.98 -3.55,1.31 -5.32,3.55 -5.32,6.71 0,2.1 0.65,3.81 1.97,5.13 1.32,1.31 3.06,2.46 5.23,3.45 2.17,0.98 4.73,1.91 7.69,2.76 2.96,0.86 6.09,1.74 9.38,2.66 5.78,1.71 11.73,3.52 17.85,5.43 6.12,1.91 11.71,4.5 16.77,7.79 5.07,3.29 9.21,7.57 12.43,12.83 3.22,5.26 4.84,12.1 4.84,20.52l0 1.97c0,8.16 -1.58,14.9 -4.74,20.22 -3.16,5.33 -7.3,9.57 -12.43,12.73 -5.13,3.16 -10.95,5.36 -17.46,6.61 -6.51,1.25 -13.19,1.87 -20.03,1.87 -6.18,0 -11.57,-0.36 -16.18,-1.08 -4.6,-0.73 -8.68,-1.55 -12.23,-2.47 -3.55,-0.92 -6.64,-1.74 -9.27,-2.46 -2.63,-0.73 -5,-1.09 -7.1,-1.09 -1.58,0 -3.23,0.26 -4.94,0.79 -1.71,0.53 -3.09,1.31 -4.14,2.37 -0.33,-0.07 -0.66,-0.13 -0.99,-0.2 5.85,-17.59 4.01,-32.86 -5.32,-50.31 0.32,-0.07 0.65,-0.13 0.98,-0.2zm176.59 -85.63l0 0.99c-3.16,3.29 -5.23,8.61 -6.22,15.98 -0.98,7.37 -1.48,15.78 -1.48,25.25l0 53.67c0,9.47 0.5,17.89 1.48,25.26 0.99,7.36 3.06,12.69 6.22,15.98l0 0.98 -50.91 0 0 -0.98c3.16,-3.29 5.23,-8.62 6.22,-15.98 0.98,-7.37 1.48,-15.79 1.48,-25.26l0 -53.67c0,-9.47 -0.5,-17.88 -1.48,-25.25 -0.99,-7.37 -3.06,-12.69 -6.22,-15.98l0 -0.99 50.91 0zm118.38 64.12l-31.37 47.16 -31.18 -47.16 -1.18 47.16c-0.26,6.31 0.07,11.67 0.99,16.08 0.92,4.41 2.3,7.66 4.14,9.77l0 0.98 -45.97 0 0 -0.98c1.84,-2.11 3.12,-5.36 3.85,-9.77 0.72,-4.41 1.21,-9.77 1.48,-16.08l1.77 -71.23c0.13,-1.57 0.2,-3.12 0.2,-4.63 0,-1.51 0,-3.06 0,-4.64 0,-5.79 -0.43,-11.05 -1.28,-15.78 -0.86,-4.74 -2.8,-9.41 -5.82,-14.01l0 -0.99 37.88 0 35.12 52.09 35.31 -52.09 37.89 0 0 0.99c-3.03,4.6 -4.97,9.3 -5.82,14.11 -0.86,4.8 -1.29,10.03 -1.29,15.68 0,1.58 0,3.13 0,4.64 0,1.51 0.07,3.06 0.2,4.63l1.78 71.23c0.26,6.31 0.75,11.67 1.48,16.08 0.72,4.41 2,7.66 3.84,9.77l0 0.98 -45.97 0 0 -0.98c1.84,-2.11 3.22,-5.36 4.15,-9.77 0.92,-4.41 1.24,-9.77 0.98,-16.08l-1.18 -47.16zm160.4 0l-31.37 47.16 -31.17 -47.16 -1.18 47.16c-0.27,6.31 0.06,11.67 0.98,16.08 0.92,4.41 2.3,7.66 4.15,9.77l0 0.98 -45.98 0 0 -0.98c1.85,-2.11 3.13,-5.36 3.85,-9.77 0.72,-4.41 1.22,-9.77 1.48,-16.08l1.78 -71.23c0.13,-1.57 0.19,-3.12 0.19,-4.63 0,-1.51 0,-3.06 0,-4.64 0,-5.79 -0.42,-11.05 -1.28,-15.78 -0.85,-4.74 -2.79,-9.41 -5.82,-14.01l0 -0.99 37.88 0 35.12 52.09 35.32 -52.09 37.88 0 0 0.99c-3.02,4.6 -4.96,9.3 -5.82,14.11 -0.85,4.8 -1.28,10.03 -1.28,15.68 0,1.58 0,3.13 0,4.64 0,1.51 0.06,3.06 0.2,4.63l1.77 71.23c0.27,6.31 0.76,11.67 1.48,16.08 0.73,4.41 2.01,7.66 3.85,9.77l0 0.98 -45.97 0 0 -0.98c1.84,-2.11 3.22,-5.36 4.14,-9.77 0.92,-4.41 1.25,-9.77 0.99,-16.08l-1.19 -47.16z"/>
  <path class="fil1" d="M135.93 254.26c-9.3,-7.96 -32.05,-38.89 -33.85,-52.72 22.2,-5.15 43.73,-5.41 67.07,-3.47 -2.18,11.73 -22.44,47.66 -33.22,56.19zm-51.96 -62.07c-17.62,3.93 -30.26,6.76 -39.14,17.59 7.92,1.36 16.63,4.88 21.14,12.07 6.77,-6.66 13.52,-12.74 25.44,-15.92 5.33,6.18 34.34,53.98 37.68,61.09 -13.74,18.67 -41.47,30.52 -61.93,5.81 -15.14,9.31 -23.44,11.48 -44.29,9.44 26.06,75.14 92.62,5.26 113.06,-6.55 15.79,9.13 18.84,24.56 42.15,31.16 -4.43,-8 -5.62,-15.7 -3.78,-26.26 -14.82,-3.43 -21.04,-7.68 -30.7,-16.78 1.04,-3.07 31.48,-56.83 36.85,-63.61 5.45,-0.15 19.96,3.16 31.57,30.03 6.14,14.23 -15.31,29.41 -11.58,27.74 11.14,-5.01 28.31,0.82 33.77,8.71 0,0 9.54,-31.74 -0.68,-49.16 -13.87,-23.65 -37.01,-25.17 -48.59,-26.21 2.08,-16.04 7.62,-28.12 6.3,-45.83 -4.66,7.61 -11.14,10.89 -21.89,12.16l2.31 30.33 -77.07 0.71c-9.15,-28.15 8.9,-42.38 28.14,-49.71 -4.93,-20.53 1.21,-34.63 9.44,-43.34 -22.93,0.67 -42.1,15.21 -50.8,31.1 -14.54,26.54 0.01,42.47 2.6,65.43z"/>
  <circle class="fil2" cx="209.84" cy="288.59" r="27.13"/>
  <circle class="fil2" cx="159.34" cy="120.14" r="27.13"/>
  <circle class="fil2" cx="37.7" cy="245.6" r="27.13"/>
  <path class="fil3" d="M249.51 304.52l3.93 -0.39c0.23,1.32 0.71,2.28 1.43,2.89 0.72,0.62 1.69,0.93 2.91,0.93 1.29,0 2.26,-0.28 2.92,-0.82 0.65,-0.55 0.98,-1.19 0.98,-1.93 0,-0.47 -0.14,-0.87 -0.41,-1.2 -0.27,-0.33 -0.76,-0.62 -1.44,-0.86 -0.47,-0.17 -1.54,-0.46 -3.21,-0.87 -2.15,-0.54 -3.66,-1.2 -4.53,-1.99 -1.22,-1.1 -1.83,-2.44 -1.83,-4.02 0,-1.02 0.29,-1.98 0.86,-2.86 0.58,-0.89 1.4,-1.56 2.48,-2.03 1.09,-0.46 2.39,-0.69 3.92,-0.69 2.49,0 4.37,0.55 5.63,1.66 1.26,1.11 1.92,2.59 1.99,4.44l-4.04 0.14c-0.17,-1.03 -0.54,-1.77 -1.1,-2.22 -0.56,-0.45 -1.41,-0.68 -2.53,-0.68 -1.16,0 -2.07,0.24 -2.73,0.72 -0.42,0.32 -0.63,0.73 -0.63,1.25 0,0.47 0.2,0.88 0.6,1.21 0.5,0.43 1.73,0.88 3.69,1.34 1.95,0.46 3.39,0.94 4.33,1.44 0.94,0.49 1.67,1.17 2.2,2.03 0.53,0.85 0.79,1.91 0.79,3.17 0,1.14 -0.31,2.22 -0.95,3.21 -0.64,1 -1.53,1.75 -2.69,2.23 -1.16,0.49 -2.61,0.73 -4.34,0.73 -2.52,0 -4.46,-0.58 -5.81,-1.75 -1.35,-1.16 -2.16,-2.85 -2.42,-5.08z"/>
  <polygon id="1" class="fil3" points="269.01,310.98 269.01,291.04 273.05,291.04 273.05,310.98 "/>
  <path id="2" class="fil3" d="M275.83 304.52l3.93 -0.39c0.23,1.32 0.71,2.28 1.43,2.89 0.72,0.62 1.69,0.93 2.91,0.93 1.29,0 2.26,-0.28 2.92,-0.82 0.65,-0.55 0.98,-1.19 0.98,-1.93 0,-0.47 -0.14,-0.87 -0.41,-1.2 -0.27,-0.33 -0.76,-0.62 -1.44,-0.86 -0.47,-0.17 -1.54,-0.46 -3.21,-0.87 -2.15,-0.54 -3.66,-1.2 -4.53,-1.99 -1.22,-1.1 -1.83,-2.44 -1.83,-4.02 0,-1.02 0.29,-1.98 0.86,-2.86 0.58,-0.89 1.4,-1.56 2.49,-2.03 1.08,-0.46 2.38,-0.69 3.91,-0.69 2.49,0 4.37,0.55 5.63,1.66 1.26,1.11 1.92,2.59 1.99,4.44l-4.04 0.14c-0.17,-1.03 -0.54,-1.77 -1.1,-2.22 -0.56,-0.45 -1.41,-0.68 -2.53,-0.68 -1.16,0 -2.07,0.24 -2.73,0.72 -0.42,0.32 -0.63,0.73 -0.63,1.25 0,0.47 0.2,0.88 0.6,1.21 0.5,0.43 1.73,0.88 3.69,1.34 1.95,0.46 3.4,0.94 4.33,1.44 0.94,0.49 1.67,1.17 2.2,2.03 0.53,0.85 0.79,1.91 0.79,3.17 0,1.14 -0.31,2.22 -0.95,3.21 -0.64,1 -1.53,1.75 -2.69,2.23 -1.16,0.49 -2.61,0.73 -4.34,0.73 -2.52,0 -4.46,-0.58 -5.81,-1.75 -1.35,-1.16 -2.16,-2.85 -2.42,-5.08z"/>
  <polygon id="3" class="fil3" points="299.95,310.98 299.95,294.41 294.05,294.41 294.05,291.04 309.87,291.04 309.87,294.41 303.99,294.41 303.99,310.98 "/>
  <polygon id="4" class="fil3" points="312.49,310.98 312.49,291.04 327.25,291.04 327.25,294.41 316.52,294.41 316.52,298.84 326.5,298.84 326.5,302.21 316.52,302.21 316.52,307.61 327.64,307.61 327.64,310.98 "/>
  <polygon id="5" class="fil3" points="331.01,310.98 331.01,291.04 337.06,291.04 340.64,304.64 344.17,291.04 350.23,291.04 350.23,310.98 346.5,310.98 346.49,295.28 342.55,310.98 338.67,310.98 334.76,295.28 334.74,310.98 "/>
  <path id="6" class="fil3" d="M372.24 310.98l-4.35 0 -1.72 -4.54 -8 0 -1.66 4.54 -4.27 0 7.74 -19.94 4.27 0 7.99 19.94zm-7.38 -7.91l-2.77 -7.38 -2.7 7.38 5.47 0z"/>
  <path id="7" class="fil3" d="M381.09 291.04l7.35 0c1.66,0 2.92,0.12 3.79,0.38 1.16,0.34 2.17,0.96 3,1.84 0.83,0.88 1.46,1.95 1.9,3.23 0.43,1.27 0.65,2.85 0.65,4.71 0,1.65 -0.2,3.06 -0.61,4.25 -0.5,1.45 -1.21,2.62 -2.13,3.52 -0.7,0.68 -1.64,1.21 -2.83,1.59 -0.88,0.29 -2.07,0.42 -3.55,0.42l-7.57 0 0 -19.94zm4.04 3.37l0 13.2 3 0c1.12,0 1.92,-0.06 2.42,-0.19 0.66,-0.16 1.19,-0.44 1.62,-0.83 0.43,-0.39 0.78,-1.03 1.05,-1.92 0.27,-0.89 0.41,-2.11 0.41,-3.65 0,-1.54 -0.14,-2.72 -0.41,-3.55 -0.27,-0.83 -0.65,-1.47 -1.14,-1.93 -0.48,-0.46 -1.1,-0.78 -1.85,-0.94 -0.56,-0.13 -1.66,-0.19 -3.3,-0.19l-1.8 0z"/>
  <polygon id="8" class="fil3" points="401.21,310.98 401.21,291.04 415.98,291.04 415.98,294.41 405.25,294.41 405.25,298.84 415.22,298.84 415.22,302.21 405.25,302.21 405.25,307.61 416.37,307.61 416.37,310.98 "/>
  <polygon id="9" class="fil3" points="427.48,310.98 427.48,291.04 433.53,291.04 437.1,304.64 440.63,291.04 446.7,291.04 446.7,310.98 442.96,310.98 442.95,295.28 439.02,310.98 435.14,310.98 431.22,295.28 431.21,310.98 "/>
  <path id="10" class="fil3" d="M468.7 310.98l-4.35 0 -1.72 -4.54 -8 0 -1.66 4.54 -4.27 0 7.75 -19.94 4.26 0 7.99 19.94zm-7.38 -7.91l-2.77 -7.38 -2.69 7.38 5.46 0z"/>
  <path id="11" class="fil3" d="M470.85 310.98l0 -19.94 8.49 0c2.13,0 3.68,0.18 4.64,0.54 0.97,0.36 1.74,0.99 2.33,1.91 0.58,0.92 0.87,1.96 0.87,3.14 0,1.5 -0.44,2.73 -1.32,3.71 -0.87,0.97 -2.18,1.59 -3.93,1.84 0.87,0.51 1.59,1.07 2.15,1.67 0.56,0.61 1.32,1.69 2.28,3.24l2.43 3.89 -4.81 0 -2.89 -4.35c-1.03,-1.55 -1.74,-2.52 -2.13,-2.92 -0.38,-0.4 -0.78,-0.68 -1.21,-0.83 -0.43,-0.15 -1.11,-0.22 -2.04,-0.22l-0.82 0 0 8.32 -4.04 0zm4.04 -11.5l2.98 0c1.94,0 3.14,-0.08 3.62,-0.25 0.48,-0.16 0.86,-0.44 1.13,-0.84 0.27,-0.4 0.41,-0.9 0.41,-1.5 0,-0.67 -0.18,-1.21 -0.54,-1.63 -0.36,-0.41 -0.86,-0.67 -1.51,-0.78 -0.33,-0.05 -1.31,-0.07 -2.94,-0.07l-3.15 0 0 5.07z"/>
  <path id="12" class="fil3" d="M503.73 303.63l3.9 1.2c-0.6,2.19 -1.6,3.82 -2.99,4.89 -1.39,1.07 -3.16,1.6 -5.3,1.6 -2.65,0 -4.83,-0.91 -6.54,-2.72 -1.7,-1.81 -2.55,-4.28 -2.55,-7.43 0,-3.31 0.86,-5.9 2.57,-7.74 1.71,-1.83 3.97,-2.75 6.76,-2.75 2.45,0 4.43,0.72 5.95,2.17 0.91,0.85 1.59,2.08 2.04,3.68l-3.98 0.94c-0.24,-1.03 -0.73,-1.84 -1.48,-2.44 -0.75,-0.6 -1.66,-0.9 -2.73,-0.9 -1.48,0 -2.68,0.53 -3.6,1.59 -0.92,1.06 -1.38,2.78 -1.38,5.16 0,2.51 0.45,4.31 1.36,5.38 0.91,1.07 2.09,1.61 3.54,1.61 1.07,0 2,-0.34 2.77,-1.03 0.77,-0.68 1.33,-1.75 1.66,-3.21z"/>
  <path id="13" class="fil3" d="M529.06 310.98l-4.35 0 -1.73 -4.54 -8 0 -1.65 4.54 -4.27 0 7.74 -19.94 4.27 0 7.99 19.94zm-7.39 -7.91l-2.77 -7.38 -2.69 7.38 5.46 0z"/>
  <path id="14" class="fil3" d="M543.96 303.63l3.91 1.2c-0.6,2.19 -1.6,3.82 -3,4.89 -1.39,1.07 -3.15,1.6 -5.29,1.6 -2.65,0 -4.83,-0.91 -6.54,-2.72 -1.7,-1.81 -2.56,-4.28 -2.56,-7.43 0,-3.31 0.86,-5.9 2.57,-7.74 1.72,-1.83 3.97,-2.75 6.77,-2.75 2.44,0 4.42,0.72 5.95,2.17 0.91,0.85 1.58,2.08 2.04,3.68l-3.98 0.94c-0.24,-1.03 -0.73,-1.84 -1.48,-2.44 -0.75,-0.6 -1.66,-0.9 -2.73,-0.9 -1.48,0 -2.68,0.53 -3.6,1.59 -0.93,1.06 -1.39,2.78 -1.39,5.16 0,2.51 0.46,4.31 1.36,5.38 0.91,1.07 2.09,1.61 3.55,1.61 1.07,0 1.99,-0.34 2.76,-1.03 0.77,-0.68 1.33,-1.75 1.66,-3.21zm-8.76 12.68l0 -1.6c0.94,0.1 1.8,0.15 2.58,0.15 0.81,0 1.42,-0.15 1.81,-0.44 0.3,-0.22 0.45,-0.5 0.45,-0.84 0,-0.31 -0.14,-0.58 -0.43,-0.81 -0.28,-0.23 -0.72,-0.34 -1.3,-0.34 -0.59,0 -1.18,0.1 -1.8,0.28l0.36 -1.35c0.71,-0.25 1.47,-0.38 2.28,-0.38 1.14,0 2,0.26 2.59,0.75 0.59,0.5 0.89,1.11 0.89,1.83 0,0.8 -0.33,1.45 -0.98,1.95 -0.88,0.68 -2.15,1.02 -3.79,1.02 -1.17,0 -2.06,-0.08 -2.66,-0.22z"/>
  <path id="15" class="fil3" d="M550.49 301.13c0,-2.03 0.3,-3.74 0.91,-5.12 0.45,-1.02 1.08,-1.93 1.86,-2.74 0.78,-0.81 1.64,-1.41 2.58,-1.8 1.24,-0.53 2.68,-0.79 4.3,-0.79 2.94,0 5.29,0.91 7.06,2.74 1.77,1.83 2.65,4.37 2.65,7.62 0,3.23 -0.88,5.75 -2.63,7.57 -1.75,1.83 -4.09,2.74 -7.02,2.74 -2.97,0 -5.33,-0.91 -7.08,-2.72 -1.75,-1.81 -2.63,-4.31 -2.63,-7.5zm4.15 -0.13c0,2.26 0.52,3.97 1.57,5.14 1.04,1.17 2.37,1.75 3.98,1.75 1.61,0 2.93,-0.58 3.96,-1.73 1.03,-1.16 1.55,-2.9 1.55,-5.22 0,-2.29 -0.5,-4 -1.51,-5.12 -1,-1.13 -2.34,-1.69 -4,-1.69 -1.67,0 -3.01,0.57 -4.02,1.71 -1.02,1.14 -1.53,2.86 -1.53,5.16zm2.92 -11.74l-1.75 0c-0.01,-0.21 -0.02,-0.38 -0.02,-0.49 0,-0.95 0.24,-1.69 0.7,-2.2 0.46,-0.51 1.06,-0.77 1.78,-0.77 0.32,0 0.62,0.03 0.89,0.1 0.28,0.07 0.77,0.27 1.49,0.59 0.73,0.32 1.29,0.48 1.7,0.48 0.29,0 0.53,-0.09 0.72,-0.27 0.2,-0.19 0.32,-0.49 0.38,-0.93l1.76 0c-0.01,1.24 -0.24,2.13 -0.69,2.66 -0.45,0.53 -1.02,0.8 -1.73,0.8 -0.31,0 -0.61,-0.03 -0.91,-0.1 -0.21,-0.05 -0.73,-0.25 -1.56,-0.58 -0.83,-0.33 -1.44,-0.49 -1.82,-0.49 -0.29,0 -0.51,0.09 -0.68,0.27 -0.16,0.17 -0.25,0.49 -0.26,0.93z"/>
  <polygon id="16" class="fil3" points="572.99,310.98 572.99,291.04 587.76,291.04 587.76,294.41 577.03,294.41 577.03,298.84 587,298.84 587,302.21 577.03,302.21 577.03,307.61 588.15,307.61 588.15,310.98 "/>
  <path id="17" class="fil3" d="M590.51 304.52l3.93 -0.39c0.24,1.32 0.71,2.28 1.43,2.89 0.72,0.62 1.69,0.93 2.91,0.93 1.29,0 2.27,-0.28 2.92,-0.82 0.66,-0.55 0.99,-1.19 0.99,-1.93 0,-0.47 -0.14,-0.87 -0.42,-1.2 -0.27,-0.33 -0.75,-0.62 -1.44,-0.86 -0.47,-0.17 -1.54,-0.46 -3.21,-0.87 -2.15,-0.54 -3.66,-1.2 -4.52,-1.99 -1.23,-1.1 -1.83,-2.44 -1.83,-4.02 0,-1.02 0.28,-1.98 0.86,-2.86 0.57,-0.89 1.4,-1.56 2.48,-2.03 1.08,-0.46 2.38,-0.69 3.91,-0.69 2.5,0 4.38,0.55 5.63,1.66 1.27,1.11 1.93,2.59 1.99,4.44l-4.04 0.14c-0.17,-1.03 -0.54,-1.77 -1.1,-2.22 -0.56,-0.45 -1.4,-0.68 -2.53,-0.68 -1.16,0 -2.07,0.24 -2.72,0.72 -0.43,0.32 -0.64,0.73 -0.64,1.25 0,0.47 0.2,0.88 0.6,1.21 0.51,0.43 1.74,0.88 3.69,1.34 1.95,0.46 3.4,0.94 4.33,1.44 0.94,0.49 1.67,1.17 2.2,2.03 0.53,0.85 0.8,1.91 0.8,3.17 0,1.14 -0.32,2.22 -0.95,3.21 -0.64,1 -1.54,1.75 -2.7,2.23 -1.16,0.49 -2.61,0.73 -4.34,0.73 -2.52,0 -4.46,-0.58 -5.81,-1.75 -1.35,-1.16 -2.15,-2.85 -2.42,-5.08z"/>
  <polygon id="18" class="fil3" points="617.84,310.98 617.84,291.04 623.89,291.04 627.46,304.64 631,291.04 637.06,291.04 637.06,310.98 633.33,310.98 633.31,295.28 629.38,310.98 625.5,310.98 621.58,295.28 621.57,310.98 "/>
  <path id="19" class="fil3" d="M641.1 310.98l0 -19.94 14.76 0 0 3.37 -10.72 0 0 4.43 9.97 0 0 3.37 -9.97 0 0 5.4 11.11 0 0 3.37 -15.15 0zm5.49 -21.75l1.89 -4.07 4.26 0 -3.76 4.07 -2.39 0z"/>
  <path id="20" class="fil3" d="M659.68 291.04l7.34 0c1.66,0 2.92,0.12 3.79,0.38 1.17,0.34 2.17,0.96 3,1.84 0.84,0.88 1.47,1.95 1.91,3.23 0.43,1.27 0.65,2.85 0.65,4.71 0,1.65 -0.21,3.06 -0.62,4.25 -0.49,1.45 -1.2,2.62 -2.13,3.52 -0.69,0.68 -1.64,1.21 -2.82,1.59 -0.89,0.29 -2.07,0.42 -3.56,0.42l-7.56 0 0 -19.94zm4.04 3.37l0 13.2 2.99 0c1.12,0 1.93,-0.06 2.43,-0.19 0.65,-0.16 1.19,-0.44 1.62,-0.83 0.43,-0.39 0.78,-1.03 1.05,-1.92 0.27,-0.89 0.4,-2.11 0.4,-3.65 0,-1.54 -0.13,-2.72 -0.4,-3.55 -0.27,-0.83 -0.65,-1.47 -1.14,-1.93 -0.49,-0.46 -1.11,-0.78 -1.86,-0.94 -0.56,-0.13 -1.66,-0.19 -3.29,-0.19l-1.8 0z"/>
  <polygon id="21" class="fil3" points="679.66,310.98 679.66,291.04 683.7,291.04 683.7,310.98 "/>
  <path id="22" class="fil3" d="M700.29 303.63l3.9 1.2c-0.59,2.19 -1.59,3.82 -2.99,4.89 -1.39,1.07 -3.15,1.6 -5.29,1.6 -2.65,0 -4.83,-0.91 -6.54,-2.72 -1.7,-1.81 -2.56,-4.28 -2.56,-7.43 0,-3.31 0.86,-5.9 2.57,-7.74 1.72,-1.83 3.97,-2.75 6.77,-2.75 2.44,0 4.42,0.72 5.95,2.17 0.91,0.85 1.58,2.08 2.04,3.68l-3.98 0.94c-0.24,-1.03 -0.73,-1.84 -1.48,-2.44 -0.75,-0.6 -1.66,-0.9 -2.73,-0.9 -1.48,0 -2.68,0.53 -3.6,1.59 -0.93,1.06 -1.39,2.78 -1.39,5.16 0,2.51 0.46,4.31 1.36,5.38 0.91,1.07 2.09,1.61 3.55,1.61 1.07,0 1.99,-0.34 2.76,-1.03 0.77,-0.68 1.33,-1.75 1.66,-3.21z"/>
  <path id="23" class="fil3" d="M725.62 310.98l-4.35 0 -1.72 -4.54 -8 0 -1.66 4.54 -4.27 0 7.74 -19.94 4.27 0 7.99 19.94zm-7.38 -7.91l-2.77 -7.38 -2.7 7.38 5.47 0z"/>
  <path id="24" class="fil3" d="M726.71 304.52l3.93 -0.39c0.24,1.32 0.71,2.28 1.43,2.89 0.72,0.62 1.69,0.93 2.91,0.93 1.29,0 2.27,-0.28 2.92,-0.82 0.66,-0.55 0.99,-1.19 0.99,-1.93 0,-0.47 -0.14,-0.87 -0.42,-1.2 -0.27,-0.33 -0.75,-0.62 -1.44,-0.86 -0.47,-0.17 -1.54,-0.46 -3.21,-0.87 -2.15,-0.54 -3.66,-1.2 -4.53,-1.99 -1.22,-1.1 -1.83,-2.44 -1.83,-4.02 0,-1.02 0.29,-1.98 0.86,-2.86 0.58,-0.89 1.41,-1.56 2.49,-2.03 1.08,-0.46 2.38,-0.69 3.91,-0.69 2.49,0 4.37,0.55 5.63,1.66 1.27,1.11 1.93,2.59 1.99,4.44l-4.04 0.14c-0.17,-1.03 -0.54,-1.77 -1.1,-2.22 -0.56,-0.45 -1.41,-0.68 -2.53,-0.68 -1.16,0 -2.07,0.24 -2.72,0.72 -0.43,0.32 -0.64,0.73 -0.64,1.25 0,0.47 0.2,0.88 0.6,1.21 0.5,0.43 1.73,0.88 3.69,1.34 1.95,0.46 3.4,0.94 4.33,1.44 0.94,0.49 1.67,1.17 2.2,2.03 0.53,0.85 0.8,1.91 0.8,3.17 0,1.14 -0.32,2.22 -0.96,3.21 -0.63,1 -1.53,1.75 -2.69,2.23 -1.16,0.49 -2.61,0.73 -4.34,0.73 -2.52,0 -4.46,-0.58 -5.81,-1.75 -1.35,-1.16 -2.15,-2.85 -2.42,-5.08z"/>
 </g>
</svg>
